<svg width="227" height="227" viewBox="0 0 227 227" fill="none" xmlns="http://www.w3.org/2000/svg">
<path d="M171.989 147.265V120.94L150.574 133.291V159.638L171.989 147.265Z" fill="black"/>
<path d="M171.989 79.7347L149.774 66.8988L113.5 87.8493L77.2266 66.8988L55.0115 79.7347V103.067L91.8962 124.376V168.574L113.5 181.052L135.104 168.574V124.376L171.989 103.067V79.7347Z" fill="black"/>
<path d="M209.084 81.6527V58.3205L186.869 45.4846L165.244 57.9622L187.459 70.7981V94.1303L209.084 81.6527Z" fill="black"/>
<path d="M39.541 94.1303V70.7981L61.7561 57.9622L40.1312 45.4846L17.916 58.3205V81.6527L39.541 94.1303Z" fill="black"/>
<path d="M55.0115 147.265L76.4257 159.638V133.291L55.0115 120.94V147.265Z" fill="black"/>
<path d="M135.104 186.447L113.5 198.925L91.896 186.447V211.403L113.5 223.88L135.104 211.403V186.447Z" fill="black"/>
<path d="M134.303 57.9621L113.5 45.9483L92.697 57.9621L113.5 69.976L134.303 57.9621Z" fill="black"/>
<path d="M187.459 112.004V156.202L150.574 177.511V202.466L209.084 168.68V99.526L187.459 112.004Z" fill="black"/>
<path d="M76.4257 177.511L39.541 156.202V112.004L17.916 99.526V168.68L76.4257 202.466V177.511Z" fill="black"/>
<path d="M77.2265 49.0255L113.5 28.0961L149.774 49.0255L171.398 36.548L113.5 3.11987L55.6016 36.548L77.2265 49.0255Z" fill="black"/>
</svg>
