<svg width="227" height="227" viewBox="0 0 227 227" fill="none" xmlns="http://www.w3.org/2000/svg">
<g clip-path="url(#clip0_75_3)">
<path d="M182.981 112.854C175.681 107.356 165.282 105.157 165.282 105.157C165.282 105.157 174.082 100.055 177.678 94.958C181.278 89.859 183.077 81.959 183.378 77.86C183.677 73.759 184.378 56.564 170.979 46.667C160.615 39.009 148.738 35.969 132.789 34.98V0.278015H111.393V34.57C106.619 34.57 101.04 34.57 95.0961 34.57V0.278015H73.7021V34.57C51.8611 34.57 31.6101 34.57 31.6101 34.57V56.789C31.6101 56.789 40.6081 56.789 43.9821 56.789C47.3551 56.789 53.3541 57.164 55.9031 60.017C58.4531 62.865 58.9031 64.366 58.9031 69.912C58.9031 75.46 58.9041 156.347 58.9041 158.447C58.9041 160.546 58.5041 163.144 56.7031 164.845C54.9051 166.546 53.1061 166.943 48.8051 166.943C44.5051 166.943 36.0091 166.943 36.0091 166.943L31.6101 192.641C31.6101 192.641 52.5281 192.641 73.7021 192.641V226.836H95.0971V192.641C101.671 192.641 107.395 192.641 111.394 192.641V226.836H132.79V192.077C138.321 191.754 143.478 191.335 146.486 190.941C152.586 190.143 166.382 188.543 179.282 179.544C192.178 170.544 195.075 156.446 195.376 142.25C195.68 128.053 190.274 118.353 182.981 112.854ZM95.0961 58.766C95.0961 58.766 101.894 58.167 108.593 58.265C115.294 58.364 121.19 58.565 129.991 61.265C138.788 63.966 143.983 70.565 144.187 78.364C144.386 86.163 140.983 91.36 134.987 94.66C128.989 97.959 120.695 99.759 112.893 100.056C105.096 100.357 95.0961 100.056 95.0961 100.056V58.766ZM142.986 161.045C138.087 163.746 128.288 166.145 118.792 166.843C109.293 167.544 95.0961 167.244 95.0961 167.244V121.351C95.0961 121.351 108.694 120.653 119.293 121.351C129.89 122.054 138.788 124.751 142.785 126.754C146.784 128.752 153.785 133.15 153.785 143.65C153.785 154.146 147.882 158.346 142.986 161.045Z" fill="black"/>
</g>
<defs>
<clipPath id="clip0_75_3">
<rect width="226.777" height="226.777" fill="white"/>
</clipPath>
</defs>
</svg>
