<svg width="227" height="227" viewBox="0 0 227 227" fill="none" xmlns="http://www.w3.org/2000/svg">
<g clip-path="url(#clip0_75_7)">
<path d="M226.883 107.66C226.883 93.415 188.122 81.53 136.613 78.788L136.609 56.091H200.924V8.85501H25.06V56.091H89.37V78.899C38.799 81.829 0.969971 93.59 0.969971 107.66C0.969971 121.732 38.799 133.494 89.37 136.419V217.923H136.609V136.53C188.122 133.794 226.883 121.905 226.883 107.66ZM113.926 121.693C58.638 121.693 13.817 113.136 13.817 102.574C13.817 93.631 45.956 86.123 89.37 84.034V89.417H89.375V111.476C97.202 111.915 105.428 112.145 113.926 112.145C121.751 112.145 129.35 111.946 136.614 111.582V83.952C180.969 85.913 214.037 93.5 214.037 102.574C214.036 113.136 169.214 121.693 113.926 121.693Z" fill="black"/>
</g>
<defs>
<clipPath id="clip0_75_7">
<rect width="226.777" height="226.777" fill="white"/>
</clipPath>
</defs>
</svg>
