<svg width="227" height="227" viewBox="0 0 227 227" fill="none" xmlns="http://www.w3.org/2000/svg">
<path d="M223.862 19.8857L189.588 20.3528L134.629 75.3114C129.021 80.9072 121.422 84.0497 113.5 84.0497C105.577 84.0497 97.9786 80.9072 92.3704 75.3114L37.4118 20.3528L3.1377 19.8857L71.241 87.9891C82.4545 99.1859 97.6533 105.475 113.5 105.475C129.346 105.475 144.545 99.1859 155.759 87.9891L223.862 19.8857Z" fill="black"/>
<path d="M3.1377 207.114L37.4118 206.647L92.3704 151.689C97.9786 146.093 105.577 142.95 113.5 142.95C121.422 142.95 129.021 146.093 134.629 151.689L189.588 206.647L223.862 207.114L155.759 139.011C144.545 127.814 129.346 121.525 113.5 121.525C97.6533 121.525 82.4545 127.814 71.241 139.011L3.1377 207.114Z" fill="black"/>
</svg>
