<svg width="84" height="87" viewBox="0 0 84 87" fill="none" xmlns="http://www.w3.org/2000/svg">
<path d="M10.7235 1.63594C10.3815 1.83597 10.1011 2.15545 9.94588 2.62037C9.83183 2.9616 9.70542 3.29881 9.5903 3.63912C5.96243 10.7173 3.07504 18.0591 0.865943 25.7146C0.154867 28.1774 4.04779 29.3816 5.08708 27.1081C5.74235 25.674 6.36959 24.2281 6.99284 22.7826C6.77647 39.6962 12.1338 56.6326 23.9344 69.1549C38.0106 84.0907 63.2094 92.4699 82.534 82.96C83.5444 82.4625 83.0399 81.0152 81.9328 81.3078C61.6523 86.6609 40.0699 81.5768 25.938 65.3733C13.0891 50.6409 9.23367 30.2461 12.4958 11.3342C13.8574 16.0202 15.22 20.7061 16.5816 25.3921C17.3859 28.1606 21.5983 26.6234 20.7943 23.8579C18.7036 16.6652 16.6129 9.47152 14.5231 2.27775C14.0135 0.528949 11.7902 0.477805 10.7235 1.63594Z" fill="black"/>
</svg>
