<svg width="86" height="61" viewBox="0 0 86 61" fill="none" xmlns="http://www.w3.org/2000/svg">
<path d="M9.23535 49.2626C11.2415 48.2625 13.2968 47.3339 15.2791 46.3417C16.2866 45.8376 16.7962 44.4829 15.8393 43.6725C14.7701 42.7666 13.1972 43.0331 12.0549 43.6054C9.82628 44.7212 7.59695 45.8377 5.36836 46.9536C3.95137 47.6628 1.30808 48.4681 0.894969 50.2892C0.484801 52.0956 2.18753 53.4008 3.2851 54.547C4.91731 56.2534 6.5495 57.9597 8.1817 59.6661C9.7925 61.3501 14.6291 59.262 12.5264 57.0641C11.56 56.0542 10.5944 55.0436 9.62873 54.0344C15.5225 54.2489 22.1207 53.8964 25.5759 49.5905C27.5357 47.148 27.924 43.9162 28.4615 40.9306C29.3725 35.8681 29.9965 30.7713 31.1221 25.7477C33.9054 13.3209 42.851 5.76788 55.4993 5.07272C65.9888 4.4959 75.7364 10.5207 82.3491 18.1915C83.2518 19.2383 86.6976 15.1407 85.4922 13.7435C73.0942 -0.638461 52.0085 -4.50628 37.4529 9.03564C31.2235 14.8314 28.4699 23.1559 26.8382 31.2617C25.8237 36.2999 25.2488 41.4187 24.2545 46.463C23.6069 49.759 14.3933 49.5408 9.23535 49.2626Z" fill="black"/>
</svg>
